<?xml version="1.0" encoding="utf-8"?>
<!-- Generator: Adobe Illustrator 16.0.0, SVG Export Plug-In . SVG Version: 6.00 Build 0)  -->
<!DOCTYPE svg PUBLIC "-//W3C//DTD SVG 1.1//EN" "http://www.w3.org/Graphics/SVG/1.1/DTD/svg11.dtd">
<svg version="1.1" id="Layer_1" xmlns="http://www.w3.org/2000/svg" xmlns:xlink="http://www.w3.org/1999/xlink" x="0px" y="0px"
	 width="66px" height="66px" viewBox="0 0 66 66" enable-background="new 0 0 66 66" xml:space="preserve">
<g>
	<g>
		<g>
			<g>
				<path fill="#32A304" d="M55.728,35.275c1.766-3.924,2.148-8.809-1.075-12.031c-3.124-3.123-7.701-3.904-11.552-2.346
					c-0.099-5.805-4.716-10.482-10.546-10.482c-5.893,0-10.555,4.777-10.555,10.668v0.018c-1-0.389-1.846-0.612-2.816-0.612
					c-3.499,0-5.137,3.496-5.137,6.997c0,0.879-1.1,1.053-0.776,1.814c-0.226-0.039-0.466-0.07-0.702-0.07
					c-2.271,0-2.769,2.442-2.769,4.713c0,0.692-1.166,0.732-0.863,1.305C4.888,36.764,2.001,40.7,2.001,45.275
					c0,5.891,2.834,10.68,8.729,11.68h44.539c5.895-1,8.73-5.789,8.73-11.68C63.999,40.61,59.899,36.725,55.728,35.275z"/>
			</g>
			<g>
				<path fill="#82CC00" d="M56.828,33.789c1.766-3.924,1.048-8.693-2.176-11.917c-3.124-3.124-7.701-3.905-11.552-2.345
					c-0.099-5.806-4.716-10.482-10.546-10.482c-5.893,0-10.555,4.775-10.555,10.666v0.018c-1-0.388-1.846-0.611-2.816-0.611
					c-3.499,0-6.389,2.834-6.389,6.333c0,0.88,0.152,1.716,0.476,2.478c-0.226-0.039-0.466-0.07-0.702-0.07
					c-2.271,0-4.118,1.842-4.118,4.113c0,0.691,0.184,1.333,0.487,1.906c-4.049,1.515-6.936,5.621-6.936,10.196
					c0,5.891,4.771,10.882,10.666,10.882h40.664c5.895,0,10.668-4.991,10.668-10.882C63.999,39.408,61,35.238,56.828,33.789z"/>
				<path fill="#82CC00" d="M47.257,15.969c1.328,0,2.408-1.076,2.408-2.404c0-1.332-1.08-2.409-2.408-2.409
					s-2.404,1.077-2.404,2.409C44.853,14.893,45.929,15.969,47.257,15.969z"/>
				<path fill="#32A304" d="M51.7,16.858c0.598,0,1.077-0.479,1.077-1.073c0-0.594-0.479-1.072-1.077-1.072
					c-0.59,0-1.068,0.479-1.068,1.072C50.632,16.38,51.11,16.858,51.7,16.858z"/>
				<path fill="#56B502" d="M52.853,11.772c0.327,0,0.591-0.263,0.591-0.589c0-0.325-0.264-0.588-0.591-0.588
					c-0.323,0-0.586,0.263-0.586,0.588C52.267,11.51,52.529,11.772,52.853,11.772z"/>
			</g>
			<path fill="#56B502" d="M63.999,44.073c0-4.665-2.999-8.728-7.171-10.177c1.766-3.924,1.048-8.747-2.176-11.971
				c-3.124-3.124-7.701-3.932-11.552-2.371c-0.099-5.807-4.716-10.496-10.546-10.496c-5.893,0-10.555,4.762-10.555,10.652v0.018
				c-1-0.388-1.846-0.611-2.816-0.611c-3.499,0-6.389,2.834-6.389,6.333c0,0.8,0.127,1.776,0.398,2.481l26.781,27.023h13.358
				C59.226,54.955,63.999,49.964,63.999,44.073z"/>
		</g>
	</g>
	<g>
		<path fill="#32A304" d="M30.097,51.072l-8.676-8.676c-1.135-1.135-1.135-2.976,0-4.109c1.136-1.137,2.975-1.136,4.11-0.001
			l4.565,4.565l10.418-10.418c1.135-1.135,2.974-1.135,4.109,0s1.135,2.975,0,4.109L30.097,51.072z"/>
	</g>
	<g>
		<path fill="#FFFFFF" d="M30.097,48.166l-8.676-8.676c-1.135-1.135-1.135-2.976,0-4.109c1.136-1.137,2.975-1.136,4.11-0.001
			l4.565,4.565l10.418-10.418c1.135-1.135,2.974-1.135,4.109,0s1.135,2.975,0,4.109L30.097,48.166z"/>
	</g>
</g>
</svg>
